<svg width="112" height="34" viewBox="0 0 112 34" fill="none" xmlns="http://www.w3.org/2000/svg">
<rect width="112" height="34" rx="6" fill="white"/>
<g clip-path="url(#clip0_352_131)">
<path d="M16.322 20.726C16.1447 20.5393 15.9113 20.3573 15.622 20.18C15.342 19.9933 15.0947 19.844 14.88 19.732C14.2827 19.4053 13.676 19.1067 13.06 18.836C12.4533 18.5653 11.856 18.2713 11.268 17.954C10.9227 17.7673 10.6987 17.4967 10.596 17.142C10.5027 16.778 10.4513 16.3953 10.442 15.994C10.8247 15.966 11.2493 15.8447 11.716 15.63C12.1827 15.406 12.654 15.14 13.13 14.832C13.606 14.5147 14.0633 14.202 14.502 13.894C14.95 13.586 15.3467 13.3293 15.692 13.124C16.0467 12.9187 16.322 12.816 16.518 12.816C16.714 12.816 16.8867 12.928 17.036 13.152C17.1947 13.3667 17.316 13.642 17.4 13.978C17.4933 14.3047 17.54 14.636 17.54 14.972C17.0267 15.028 16.504 15.168 15.972 15.392C15.4493 15.616 14.9313 15.8633 14.418 16.134C13.914 16.3953 13.4193 16.6287 12.934 16.834C13.2793 17.0207 13.662 17.198 14.082 17.366C14.5113 17.5247 14.9407 17.6787 15.37 17.828C15.7993 17.968 16.1913 18.108 16.546 18.248C16.91 18.3787 17.1993 18.5093 17.414 18.64C17.638 18.7613 17.75 18.8827 17.75 19.004C17.75 19.2093 17.6753 19.424 17.526 19.648C17.3767 19.872 17.19 20.082 16.966 20.278C16.7513 20.4647 16.5367 20.614 16.322 20.726ZM20.4296 22.364C19.9722 22.364 19.6502 22.2287 19.4636 21.958C19.2769 21.678 19.1836 21.3093 19.1836 20.852C19.1836 20.5067 19.2489 20.1193 19.3796 19.69C19.5196 19.2607 19.6969 18.8127 19.9116 18.346C20.1262 17.87 20.3549 17.394 20.5976 16.918C20.8402 16.442 21.0736 15.9847 21.2976 15.546C21.5309 15.1073 21.7269 14.7107 21.8856 14.356C21.8389 14.1227 21.7829 13.8753 21.7176 13.614C21.6522 13.3527 21.5916 13.1053 21.5356 12.872C21.9556 12.5827 22.3942 12.34 22.8516 12.144C23.3089 11.948 23.8596 11.85 24.5036 11.85C24.7462 11.85 24.9516 11.8827 25.1196 11.948C25.2876 12.0133 25.4182 12.0973 25.5116 12.2C25.7542 12.0973 25.9922 12.0133 26.2256 11.948C26.4589 11.8827 26.7062 11.85 26.9676 11.85C27.3222 11.85 27.5836 11.9527 27.7516 12.158C27.9196 12.354 28.0269 12.6107 28.0736 12.928C28.1296 13.236 28.1576 13.5627 28.1576 13.908C28.1576 14.44 28.1389 14.9767 28.1016 15.518C28.0642 16.0593 28.0456 16.6333 28.0456 17.24C28.0456 17.884 28.0782 18.5093 28.1436 19.116C28.2089 19.7227 28.3396 20.2593 28.5356 20.726C28.7316 21.1927 29.0209 21.538 29.4036 21.762C29.0862 21.958 28.7782 22.1073 28.4796 22.21C28.1902 22.3127 27.8449 22.364 27.4436 22.364C26.9862 22.364 26.6129 22.238 26.3236 21.986C26.0342 21.734 25.8056 21.3933 25.6376 20.964C25.4789 20.5347 25.3622 20.0587 25.2876 19.536H22.4316C22.3476 19.8253 22.2822 20.0913 22.2356 20.334C22.1889 20.5673 22.1656 20.7773 22.1656 20.964C22.1656 21.2627 22.2029 21.51 22.2776 21.706C21.9322 21.9207 21.6102 22.084 21.3116 22.196C21.0129 22.308 20.7189 22.364 20.4296 22.364ZM23.0196 18.066H25.1896C25.1896 17.5433 25.1942 17.072 25.2036 16.652C25.2222 16.232 25.2409 15.8307 25.2596 15.448C25.2876 15.056 25.3156 14.65 25.3436 14.23H24.8956C24.5782 14.8553 24.2516 15.504 23.9156 16.176C23.5796 16.848 23.2809 17.478 23.0196 18.066ZM32.0288 22.35C31.4595 22.35 31.0535 22.1727 30.8108 21.818C30.5681 21.4633 30.4468 20.922 30.4468 20.194C30.4468 19.9887 30.4701 19.6853 30.5168 19.284C30.5728 18.8827 30.6428 18.4253 30.7268 17.912C30.8108 17.3987 30.9041 16.8667 31.0068 16.316C31.1095 15.756 31.2075 15.2147 31.3008 14.692C31.3941 14.1693 31.4781 13.7027 31.5528 13.292L30.7688 12.172C31.2635 11.8827 31.7348 11.64 32.1828 11.444C32.6308 11.248 33.0788 11.15 33.5268 11.15C33.9188 11.15 34.1895 11.2293 34.3388 11.388C34.4975 11.5373 34.5768 11.7893 34.5768 12.144C34.5768 12.4707 34.5348 12.8813 34.4508 13.376C34.3668 13.8613 34.2641 14.3933 34.1428 14.972C34.0215 15.5413 33.8955 16.1293 33.7648 16.736C33.6435 17.3427 33.5408 17.926 33.4568 18.486C33.3728 19.046 33.3308 19.5547 33.3308 20.012C33.3308 20.376 33.3635 20.7027 33.4288 20.992C33.5035 21.272 33.6155 21.496 33.7648 21.664C33.1115 22.1213 32.5328 22.35 32.0288 22.35ZM37.1635 24.786C36.5662 24.786 36.1602 24.6367 35.9455 24.338C35.7308 24.0393 35.6235 23.61 35.6235 23.05C35.6235 22.8447 35.6468 22.5273 35.6935 22.098C35.7402 21.6687 35.7962 21.1787 35.8615 20.628C35.9362 20.068 36.0202 19.4893 36.1135 18.892C36.2068 18.2947 36.2955 17.7207 36.3795 17.17C36.4728 16.6193 36.5568 16.1387 36.6315 15.728L35.8475 14.608C36.3422 14.3187 36.8088 14.076 37.2475 13.88C37.6955 13.684 38.1435 13.586 38.5915 13.586C38.9835 13.586 39.2495 13.7213 39.3895 13.992C39.5295 14.2533 39.5995 14.5613 39.5995 14.916C39.5995 15.0187 39.5948 15.1353 39.5855 15.266C39.5762 15.3873 39.5622 15.518 39.5435 15.658L39.6835 15.728C39.9542 15.056 40.3462 14.5333 40.8595 14.16C41.3728 13.7773 41.9608 13.586 42.6235 13.586C43.1275 13.586 43.5522 13.74 43.8975 14.048C44.2428 14.3467 44.5042 14.7433 44.6815 15.238C44.8588 15.7327 44.9475 16.2787 44.9475 16.876C44.9475 17.4547 44.8355 18.0473 44.6115 18.654C44.3968 19.2513 44.0655 19.802 43.6175 20.306C43.1695 20.81 42.6048 21.216 41.9235 21.524C41.2422 21.832 40.4348 21.986 39.5015 21.986C39.3242 21.986 39.1515 21.9813 38.9835 21.972C38.8155 21.9533 38.6335 21.9347 38.4375 21.916C38.4095 22.2333 38.3955 22.5367 38.3955 22.826C38.3955 23.106 38.4282 23.3533 38.4935 23.568C38.5682 23.792 38.6802 23.9693 38.8295 24.1C38.3068 24.5573 37.7515 24.786 37.1635 24.786ZM38.6895 20.614C39.2962 20.5953 39.8282 20.4833 40.2855 20.278C40.7522 20.0633 41.1442 19.788 41.4615 19.452C41.7788 19.1067 42.0168 18.7333 42.1755 18.332C42.3342 17.9307 42.4135 17.5387 42.4135 17.156C42.4135 16.7267 42.3295 16.3767 42.1615 16.106C41.9935 15.8353 41.7415 15.7 41.4055 15.7C41.0602 15.7 40.7335 15.8073 40.4255 16.022C40.1268 16.2273 39.8562 16.568 39.6135 17.044C39.3802 17.52 39.1795 18.1687 39.0115 18.99L38.6895 20.614ZM48.1903 22.35C47.6023 22.35 47.1823 22.2007 46.9303 21.902C46.6783 21.6033 46.5523 21.174 46.5523 20.614C46.5523 20.334 46.5756 19.97 46.6223 19.522C46.6783 19.074 46.7483 18.5793 46.8323 18.038C46.9163 17.4873 47.0096 16.9273 47.1123 16.358C47.2149 15.7793 47.3129 15.2287 47.4063 14.706C47.4996 14.174 47.5836 13.7027 47.6583 13.292L46.8743 12.172C47.3689 11.8827 47.8403 11.64 48.2883 11.444C48.7363 11.248 49.1843 11.15 49.6323 11.15C50.0243 11.15 50.2949 11.2293 50.4443 11.388C50.6029 11.5373 50.6823 11.7893 50.6823 12.144C50.6823 12.5267 50.6589 12.9233 50.6123 13.334C50.5749 13.7353 50.5236 14.1227 50.4583 14.496C50.3929 14.8693 50.3276 15.196 50.2623 15.476C50.2063 15.756 50.1596 15.9613 50.1223 16.092L50.2623 16.162C50.8129 15.2193 51.4149 14.5567 52.0683 14.174C52.7216 13.7913 53.3889 13.6 54.0703 13.6C54.6396 13.6 55.0643 13.74 55.3443 14.02C55.6243 14.2907 55.7643 14.7153 55.7643 15.294C55.7643 15.798 55.6943 16.3347 55.5543 16.904C55.4236 17.464 55.2883 18.0427 55.1483 18.64C55.0083 19.228 54.9383 19.8113 54.9383 20.39C54.9383 20.9687 55.0363 21.3933 55.2323 21.664C54.7376 22.1213 54.2243 22.35 53.6923 22.35C53.1043 22.35 52.6843 22.2007 52.4323 21.902C52.1803 21.6033 52.0543 21.174 52.0543 20.614C52.0543 20.306 52.0963 19.9653 52.1803 19.592C52.2643 19.2093 52.3623 18.822 52.4743 18.43C52.5863 18.038 52.6843 17.6693 52.7683 17.324C52.8523 16.9787 52.8943 16.68 52.8943 16.428C52.8943 16.232 52.8569 16.078 52.7823 15.966C52.7169 15.854 52.5956 15.798 52.4183 15.798C52.1663 15.798 51.8723 15.91 51.5363 16.134C51.2003 16.358 50.8689 16.6753 50.5423 17.086C50.2249 17.4873 49.9589 17.968 49.7443 18.528C49.5389 19.088 49.4363 19.7087 49.4363 20.39C49.4363 20.9687 49.5343 21.3933 49.7303 21.664C49.2356 22.1213 48.7223 22.35 48.1903 22.35ZM59.5784 22.35C59.0557 22.35 58.5937 22.2147 58.1924 21.944C57.8004 21.6733 57.4971 21.2907 57.2824 20.796C57.0677 20.3013 56.9604 19.7227 56.9604 19.06C56.9604 18.2853 57.0957 17.5667 57.3664 16.904C57.6464 16.2413 58.0291 15.6627 58.5144 15.168C59.0091 14.6733 59.5877 14.2907 60.2504 14.02C60.9131 13.74 61.6317 13.6 62.4064 13.6C62.6304 13.6 62.8217 13.6093 62.9804 13.628C63.1484 13.6373 63.3257 13.6653 63.5124 13.712C63.5684 13.9733 63.6011 14.202 63.6104 14.398C63.8251 14.258 64.0631 14.1507 64.3244 14.076C64.5857 13.992 64.8284 13.95 65.0524 13.95C65.7337 13.95 66.0744 14.3187 66.0744 15.056C66.0744 15.2987 66.0277 15.63 65.9344 16.05C65.8504 16.4607 65.7477 16.918 65.6264 17.422C65.5144 17.9167 65.4117 18.4253 65.3184 18.948C65.2344 19.4613 65.1924 19.942 65.1924 20.39C65.1924 20.9967 65.3371 21.4213 65.6264 21.664C65.1037 22.1213 64.5484 22.35 63.9604 22.35C63.4191 22.35 63.0177 22.182 62.7564 21.846C62.5044 21.51 62.3784 20.9873 62.3784 20.278L62.2384 20.208C61.9864 20.88 61.6224 21.4073 61.1464 21.79C60.6797 22.1633 60.1571 22.35 59.5784 22.35ZM60.6844 19.802C61.0484 19.802 61.4031 19.6713 61.7484 19.41C62.0937 19.1487 62.3831 18.7893 62.6164 18.332C62.6537 17.968 62.6911 17.6273 62.7284 17.31C62.7751 16.9833 62.8311 16.638 62.8964 16.274C62.9711 15.91 63.0597 15.4807 63.1624 14.986C62.6864 14.986 62.2337 15.0793 61.8044 15.266C61.3844 15.4433 61.0064 15.6907 60.6704 16.008C60.3344 16.3253 60.0684 16.6893 59.8724 17.1C59.6857 17.5013 59.5924 17.926 59.5924 18.374C59.5924 18.8313 59.6857 19.186 59.8724 19.438C60.0684 19.6807 60.3391 19.802 60.6844 19.802ZM67.689 23.19C67.493 23.19 67.2877 23.1573 67.073 23.092C66.8677 23.036 66.653 22.9193 66.429 22.742C66.6623 22.5273 66.877 22.182 67.073 21.706C67.269 21.2207 67.4463 20.698 67.605 20.138C67.941 18.962 68.2397 17.8187 68.501 16.708C68.7717 15.5973 69.0143 14.5707 69.229 13.628C69.453 12.676 69.649 11.864 69.817 11.192C69.8823 10.9307 69.999 10.716 70.167 10.548C70.335 10.38 70.587 10.296 70.923 10.296C71.2403 10.296 71.5343 10.3567 71.805 10.478C72.0757 10.59 72.323 10.7487 72.547 10.954C72.3883 11.1967 72.2297 11.486 72.071 11.822C71.9217 12.158 71.7863 12.4987 71.665 12.844C71.5437 13.18 71.4457 13.4833 71.371 13.754C71.1657 14.4727 70.979 15.1493 70.811 15.784C70.643 16.4187 70.4797 17.044 70.321 17.66C70.1623 18.2667 69.9943 18.8967 69.817 19.55C69.649 20.2033 69.4577 20.9127 69.243 21.678C69.1123 22.154 68.921 22.5227 68.669 22.784C68.4263 23.0547 68.0997 23.19 67.689 23.19ZM74.9474 20.782C74.7608 20.782 74.5881 20.6747 74.4294 20.46C74.2708 20.236 74.1448 19.956 74.0514 19.62C73.9674 19.284 73.9254 18.9527 73.9254 18.626C74.4481 18.57 74.9708 18.43 75.4934 18.206C76.0161 17.982 76.5341 17.7347 77.0474 17.464C77.5608 17.1933 78.0554 16.96 78.5314 16.764C78.1861 16.5773 77.7988 16.4047 77.3694 16.246C76.9494 16.078 76.5248 15.924 76.0954 15.784C75.6661 15.6347 75.2694 15.4947 74.9054 15.364C74.5508 15.224 74.2614 15.0933 74.0374 14.972C73.8228 14.8413 73.7154 14.7153 73.7154 14.594C73.7154 14.3887 73.7901 14.174 73.9394 13.95C74.0888 13.726 74.2754 13.516 74.4994 13.32C74.7234 13.124 74.9381 12.9747 75.1434 12.872C75.3208 13.0587 75.5494 13.2453 75.8294 13.432C76.1188 13.6093 76.3708 13.754 76.5854 13.866C77.1921 14.1833 77.7988 14.482 78.4054 14.762C79.0121 15.0327 79.6094 15.3267 80.1974 15.644C80.5521 15.8307 80.7761 16.1013 80.8694 16.456C80.9628 16.8107 81.0141 17.1933 81.0234 17.604C80.6408 17.632 80.2161 17.758 79.7494 17.982C79.2828 18.1967 78.8114 18.4627 78.3354 18.78C77.8594 19.088 77.3974 19.396 76.9494 19.704C76.5108 20.012 76.1141 20.2687 75.7594 20.474C75.4141 20.6793 75.1434 20.782 74.9474 20.782Z" fill="url(#paint0_linear_352_131)"/>
<path d="M83.968 14.15C83.62 14.15 83.318 14.084 83.062 13.952C82.81 13.816 82.614 13.63 82.474 13.394C82.338 13.158 82.27 12.884 82.27 12.572C82.27 12.248 82.328 11.954 82.444 11.69C82.56 11.422 82.724 11.192 82.936 11C83.148 10.808 83.394 10.66 83.674 10.556C83.958 10.452 84.264 10.4 84.592 10.4C84.948 10.4 85.222 10.468 85.414 10.604C85.61 10.736 85.708 10.902 85.708 11.102C85.708 11.294 85.638 11.44 85.498 11.54C85.362 11.64 85.206 11.69 85.03 11.69C84.91 11.69 84.784 11.65 84.652 11.57C84.52 11.49 84.414 11.366 84.334 11.198C84.158 11.27 84.008 11.382 83.884 11.534C83.764 11.682 83.672 11.848 83.608 12.032C83.548 12.212 83.518 12.39 83.518 12.566C83.518 12.802 83.568 13.006 83.668 13.178C83.768 13.346 83.916 13.43 84.112 13.43C84.248 13.43 84.372 13.378 84.484 13.274C84.596 13.166 84.652 12.996 84.652 12.764C84.924 12.764 85.138 12.794 85.294 12.854C85.45 12.914 85.528 13.022 85.528 13.178C85.528 13.322 85.464 13.47 85.336 13.622C85.208 13.77 85.028 13.896 84.796 14C84.564 14.1 84.288 14.15 83.968 14.15ZM87.7942 14.15C87.4422 14.15 87.1382 14.084 86.8822 13.952C86.6302 13.816 86.4362 13.63 86.3002 13.394C86.1642 13.158 86.0962 12.884 86.0962 12.572C86.0962 12.14 86.1902 11.762 86.3782 11.438C86.5702 11.11 86.8322 10.856 87.1642 10.676C87.4962 10.492 87.8742 10.4 88.2982 10.4C88.3662 10.4 88.4342 10.404 88.5022 10.412C88.5742 10.416 88.6502 10.428 88.7302 10.448C88.7502 10.504 88.7662 10.572 88.7782 10.652C88.7902 10.728 88.7982 10.81 88.8022 10.898C88.8382 10.886 88.8762 10.876 88.9162 10.868C88.9602 10.86 89.0062 10.856 89.0542 10.856C89.1942 10.856 89.3262 10.894 89.4502 10.97C89.5742 11.042 89.6762 11.156 89.7562 11.312C89.8362 11.468 89.8762 11.666 89.8762 11.906C89.8762 12.262 89.8162 12.58 89.6962 12.86C89.5802 13.136 89.4222 13.37 89.2222 13.562C89.0222 13.754 88.7982 13.9 88.5502 14C88.3062 14.1 88.0542 14.15 87.7942 14.15ZM87.9802 13.412C88.0722 13.412 88.1682 13.39 88.2682 13.346C88.3682 13.302 88.4662 13.222 88.5622 13.106C88.6582 12.99 88.7382 12.826 88.8022 12.614C88.6302 12.506 88.5062 12.374 88.4302 12.218C88.3542 12.058 88.3162 11.882 88.3162 11.69C88.3162 11.634 88.3262 11.562 88.3462 11.474C88.3662 11.386 88.4002 11.296 88.4482 11.204C88.5002 11.112 88.5702 11.036 88.6582 10.976C88.3822 11.032 88.1562 11.116 87.9802 11.228C87.8042 11.34 87.6662 11.47 87.5662 11.618C87.4702 11.762 87.4022 11.912 87.3622 12.068C87.3262 12.22 87.3082 12.366 87.3082 12.506C87.3082 12.666 87.3342 12.816 87.3862 12.956C87.4382 13.092 87.5142 13.202 87.6142 13.286C87.7142 13.37 87.8362 13.412 87.9802 13.412ZM91.5312 14.15C91.3272 14.15 91.1372 14.096 90.9612 13.988C90.7892 13.876 90.6492 13.716 90.5412 13.508C90.4372 13.296 90.3852 13.04 90.3852 12.74C90.3852 12.492 90.4312 12.24 90.5232 11.984C90.6192 11.724 90.7632 11.486 90.9552 11.27C91.1472 11.054 91.3892 10.88 91.6812 10.748C91.9732 10.616 92.3192 10.55 92.7192 10.55C92.7832 10.55 92.8452 10.552 92.9052 10.556C92.9692 10.56 93.0352 10.566 93.1032 10.574C93.1072 10.546 93.1152 10.496 93.1272 10.424C93.1432 10.348 93.1532 10.296 93.1572 10.268L92.8212 9.788C93.0332 9.664 93.2352 9.56 93.4272 9.476C93.6192 9.392 93.8112 9.35 94.0032 9.35C94.1712 9.35 94.2872 9.384 94.3512 9.452C94.4192 9.516 94.4532 9.624 94.4532 9.776C94.4532 9.916 94.4352 10.092 94.3992 10.304C94.3632 10.512 94.3192 10.74 94.2672 10.988C94.2152 11.232 94.1612 11.484 94.1052 11.744C94.0532 12.004 94.0092 12.254 93.9732 12.494C93.9372 12.734 93.9192 12.952 93.9192 13.148C93.9192 13.336 93.9332 13.488 93.9612 13.604C93.9932 13.716 94.0412 13.8 94.1052 13.856C93.8812 14.052 93.6432 14.15 93.3912 14.15C93.2192 14.15 93.0832 14.118 92.9832 14.054C92.8872 13.99 92.8172 13.912 92.7732 13.82C92.7292 13.728 92.7072 13.642 92.7072 13.562L92.6472 13.532C92.4872 13.744 92.3092 13.9 92.1132 14C91.9172 14.1 91.7232 14.15 91.5312 14.15ZM92.1312 13.25C92.2352 13.25 92.3412 13.224 92.4492 13.172C92.5572 13.12 92.6592 13.038 92.7552 12.926C92.7832 12.63 92.8192 12.324 92.8632 12.008C92.9072 11.688 92.9612 11.378 93.0252 11.078C92.7812 11.078 92.5632 11.122 92.3712 11.21C92.1832 11.294 92.0252 11.408 91.8972 11.552C91.7732 11.692 91.6772 11.846 91.6092 12.014C91.5452 12.182 91.5132 12.348 91.5132 12.512C91.5132 12.748 91.5732 12.93 91.6932 13.058C91.8172 13.186 91.9632 13.25 92.1312 13.25ZM96.5895 14.15C96.2175 14.15 95.9035 14.084 95.6475 13.952C95.3915 13.82 95.1975 13.636 95.0655 13.4C94.9375 13.16 94.8735 12.884 94.8735 12.572C94.8735 12.248 94.9315 11.954 95.0475 11.69C95.1675 11.422 95.3335 11.192 95.5455 11C95.7575 10.808 96.0035 10.66 96.2835 10.556C96.5675 10.452 96.8735 10.4 97.2015 10.4C97.5895 10.4 97.8755 10.486 98.0595 10.658C98.2435 10.83 98.3355 11.046 98.3355 11.306C98.3355 11.53 98.2615 11.742 98.1135 11.942C97.9695 12.138 97.7355 12.298 97.4115 12.422C97.0875 12.542 96.6555 12.604 96.1155 12.608C96.1275 12.864 96.1855 13.066 96.2895 13.214C96.3975 13.358 96.5315 13.43 96.6915 13.43C96.7715 13.43 96.8555 13.412 96.9435 13.376C97.0315 13.336 97.1055 13.268 97.1655 13.172C97.2255 13.072 97.2555 12.936 97.2555 12.764C97.5275 12.764 97.7415 12.794 97.8975 12.854C98.0535 12.914 98.1315 13.022 98.1315 13.178C98.1315 13.322 98.0695 13.47 97.9455 13.622C97.8215 13.77 97.6435 13.896 97.4115 14C97.1835 14.1 96.9095 14.15 96.5895 14.15ZM96.1695 12.128C96.4615 12.104 96.6955 12.05 96.8715 11.966C97.0475 11.882 97.1755 11.786 97.2555 11.678C97.3355 11.57 97.3755 11.47 97.3755 11.378C97.3755 11.298 97.3515 11.232 97.3035 11.18C97.2555 11.128 97.1875 11.102 97.0995 11.102C96.9555 11.102 96.8215 11.152 96.6975 11.252C96.5735 11.352 96.4655 11.482 96.3735 11.642C96.2855 11.798 96.2175 11.96 96.1695 12.128ZM100.305 14.15C99.9289 14.15 99.6289 14.12 99.4049 14.06C99.1849 14.004 99.0269 13.926 98.9309 13.826C98.8349 13.726 98.7869 13.616 98.7869 13.496C98.7869 13.404 98.8109 13.298 98.8589 13.178C98.9109 13.058 98.9849 12.944 99.0809 12.836C99.1489 12.928 99.2389 13.014 99.3509 13.094C99.4669 13.17 99.5929 13.232 99.7289 13.28C99.8649 13.324 99.9969 13.346 100.125 13.346C100.265 13.346 100.391 13.314 100.503 13.25C100.615 13.182 100.689 13.068 100.725 12.908C100.109 12.836 99.6669 12.7 99.3989 12.5C99.1309 12.296 98.9969 12.014 98.9969 11.654C98.9969 11.426 99.0509 11.232 99.1589 11.072C99.2669 10.912 99.4109 10.784 99.5909 10.688C99.7749 10.588 99.9829 10.516 100.215 10.472C100.451 10.424 100.695 10.4 100.947 10.4C101.183 10.4 101.393 10.432 101.577 10.496C101.761 10.556 101.905 10.638 102.009 10.742C102.113 10.846 102.165 10.966 102.165 11.102C102.165 11.294 102.095 11.44 101.955 11.54C101.819 11.64 101.663 11.69 101.487 11.69C101.367 11.69 101.241 11.65 101.109 11.57C100.977 11.49 100.871 11.366 100.791 11.198C100.643 11.242 100.525 11.306 100.437 11.39C100.349 11.47 100.271 11.586 100.203 11.738C100.659 11.806 101.021 11.892 101.289 11.996C101.557 12.1 101.749 12.232 101.865 12.392C101.985 12.548 102.045 12.742 102.045 12.974C102.045 13.158 102.003 13.318 101.919 13.454C101.839 13.59 101.733 13.702 101.601 13.79C101.469 13.878 101.325 13.948 101.169 14C101.013 14.056 100.859 14.094 100.707 14.114C100.555 14.138 100.421 14.15 100.305 14.15Z" fill="#A0616A"/>
</g>
<defs>
<linearGradient id="paint0_linear_352_131" x1="34.8773" y1="13.04" x2="48.4947" y2="25.8937" gradientUnits="userSpaceOnUse">
<stop stop-color="#030712"/>
<stop offset="0.725486" stop-color="#864E4E"/>
</linearGradient>
<clipPath id="clip0_352_131">
<rect width="94" height="18" fill="white" transform="translate(9 8)"/>
</clipPath>
</defs>
</svg>
